<mxfile host="app.diagrams.net" modified="2020-10-23T14:41:40.197Z" agent="5.0 (Windows NT 10.0; Win64; x64) AppleWebKit/537.36 (KHTML, like Gecko) Chrome/86.0.4240.111 Safari/537.36 Edg/86.0.622.51" etag="ZtLM9EAV3uM1Br_k1Loi" version="13.8.1" type="github" pages="2">
  <diagram id="T8bmMnJC-8h-_lslcu6o" name="Page-1">
    <mxGraphModel dx="942" dy="627" grid="1" gridSize="10" guides="1" tooltips="1" connect="1" arrows="1" fold="1" page="1" pageScale="1" pageWidth="827" pageHeight="1169" math="0" shadow="0">
      <root>
        <mxCell id="0" />
        <mxCell id="1" parent="0" />
        <mxCell id="vRwpCtjTsJ4tstUBueOc-1" value="" style="rounded=0;whiteSpace=wrap;html=1;" vertex="1" parent="1">
          <mxGeometry x="260" y="150" width="120" height="60" as="geometry" />
        </mxCell>
      </root>
    </mxGraphModel>
  </diagram>
  <diagram id="iGq2aKLgUY_TNssXlq9E" name="Page-2">
    <mxGraphModel dx="942" dy="627" grid="1" gridSize="10" guides="1" tooltips="1" connect="1" arrows="1" fold="1" page="1" pageScale="1" pageWidth="827" pageHeight="1169" math="0" shadow="0">
      <root>
        <mxCell id="UYe3Hc3o_uLgZqfFwjuC-0" />
        <mxCell id="UYe3Hc3o_uLgZqfFwjuC-1" parent="UYe3Hc3o_uLgZqfFwjuC-0" />
        <mxCell id="UYe3Hc3o_uLgZqfFwjuC-2" value="" style="rounded=1;whiteSpace=wrap;html=1;" vertex="1" parent="UYe3Hc3o_uLgZqfFwjuC-1">
          <mxGeometry x="300" y="200" width="120" height="60" as="geometry" />
        </mxCell>
        <mxCell id="UYe3Hc3o_uLgZqfFwjuC-3" value="" style="shape=process;whiteSpace=wrap;html=1;backgroundOutline=1;" vertex="1" parent="UYe3Hc3o_uLgZqfFwjuC-1">
          <mxGeometry x="470" y="240" width="120" height="60" as="geometry" />
        </mxCell>
      </root>
    </mxGraphModel>
  </diagram>
</mxfile>
